# xmcd CD database file
#
# Track frame offsets:
#	150
#	8640
#	30635
#	51660
#	68665
#	87290
#	98089
#	121114
#	142009
#	152724
#	169032
#	184584
#	197216
#	208241
#	223231
#	237181
#
# Disc length: 3506 seconds
#
# Revision: 0
# Processed by: cddbd v1.5.2PL0 Copyright (c) Steve Scherf et al.
# Submitted via: CDex 1.82
#
DISCID=e20db010
DTITLE=Various Artist - VIVA CUBANA!
DYEAR=1900
DGENRE=Salsa
TTITLE0=Ritmo Cubano
TTITLE1=El Poder De La Musica
TTITLE2=La Rumba
TTITLE3=Patacon (Patacon Pisao)
TTITLE4=Noestro Bolero
TTITLE5=Negrita
TTITLE6=Caravan
TTITLE7=La Paloma
TTITLE8=Cuba Libre
TTITLE9=Sun Sun Babae
TTITLE10=Yele Le
TTITLE11=Songo Tambo
TTITLE12=Que Pasa?
TTITLE13=Mambo Y Cha Cha Cha
TTITLE14=Le Lo Lay
TTITLE15=La Bamba Salsa
EXTD=
EXTT0=
EXTT1=
EXTT2=
EXTT3=
EXTT4=
EXTT5=
EXTT6=
EXTT7=
EXTT8=
EXTT9=
EXTT10=
EXTT11=
EXTT12=
EXTT13=
EXTT14=
EXTT15=
PLAYORDER=
